<svg width="206" height="39" viewBox="0 0 206 39" fill="none" xmlns="http://www.w3.org/2000/svg">
<path d="M2.02273 31V7.72727H11.2045C12.9697 7.72727 14.4735 8.06439 15.7159 8.73864C16.9583 9.4053 17.9053 10.3333 18.5568 11.5227C19.2159 12.7045 19.5455 14.0682 19.5455 15.6136C19.5455 17.1591 19.2121 18.5227 18.5455 19.7045C17.8788 20.8864 16.9129 21.8068 15.6477 22.4659C14.3902 23.125 12.8674 23.4545 11.0795 23.4545H5.22727V19.5114H10.2841C11.2311 19.5114 12.0114 19.3485 12.625 19.0227C13.2462 18.6894 13.7083 18.2311 14.0114 17.6477C14.322 17.0568 14.4773 16.3788 14.4773 15.6136C14.4773 14.8409 14.322 14.1667 14.0114 13.5909C13.7083 13.0076 13.2462 12.5568 12.625 12.2386C12.0038 11.9129 11.2159 11.75 10.2614 11.75H6.94318V31H2.02273ZM44.1278 19.3636C44.1278 21.9015 43.6468 24.0606 42.6847 25.8409C41.7301 27.6212 40.4271 28.9811 38.7756 29.9205C37.1316 30.8523 35.2831 31.3182 33.2301 31.3182C31.1619 31.3182 29.3059 30.8485 27.6619 29.9091C26.018 28.9697 24.7188 27.6098 23.7642 25.8295C22.8097 24.0492 22.3324 21.8939 22.3324 19.3636C22.3324 16.8258 22.8097 14.6667 23.7642 12.8864C24.7188 11.1061 26.018 9.75 27.6619 8.81818C29.3059 7.87879 31.1619 7.40909 33.2301 7.40909C35.2831 7.40909 37.1316 7.87879 38.7756 8.81818C40.4271 9.75 41.7301 11.1061 42.6847 12.8864C43.6468 14.6667 44.1278 16.8258 44.1278 19.3636ZM39.1392 19.3636C39.1392 17.7197 38.893 16.3333 38.4006 15.2045C37.9157 14.0758 37.2301 13.2197 36.3438 12.6364C35.4574 12.053 34.4195 11.7614 33.2301 11.7614C32.0407 11.7614 31.0028 12.053 30.1165 12.6364C29.2301 13.2197 28.5407 14.0758 28.0483 15.2045C27.5634 16.3333 27.321 17.7197 27.321 19.3636C27.321 21.0076 27.5634 22.3939 28.0483 23.5227C28.5407 24.6515 29.2301 25.5076 30.1165 26.0909C31.0028 26.6742 32.0407 26.9659 33.2301 26.9659C34.4195 26.9659 35.4574 26.6742 36.3438 26.0909C37.2301 25.5076 37.9157 24.6515 38.4006 23.5227C38.893 22.3939 39.1392 21.0076 39.1392 19.3636ZM68.3068 15.875H63.3295C63.2386 15.2311 63.053 14.6591 62.7727 14.1591C62.4924 13.6515 62.1326 13.2197 61.6932 12.8636C61.2538 12.5076 60.7462 12.2348 60.1705 12.0455C59.6023 11.8561 58.9848 11.7614 58.3182 11.7614C57.1136 11.7614 56.0644 12.0606 55.1705 12.6591C54.2765 13.25 53.5833 14.1136 53.0909 15.25C52.5985 16.3788 52.3523 17.75 52.3523 19.3636C52.3523 21.0227 52.5985 22.4167 53.0909 23.5455C53.5909 24.6742 54.2879 25.5265 55.1818 26.1023C56.0758 26.678 57.1098 26.9659 58.2841 26.9659C58.9432 26.9659 59.553 26.8788 60.1136 26.7045C60.6818 26.5303 61.1856 26.2765 61.625 25.9432C62.0644 25.6023 62.428 25.1894 62.7159 24.7045C63.0114 24.2197 63.2159 23.6667 63.3295 23.0455L68.3068 23.0682C68.178 24.1364 67.8561 25.1667 67.3409 26.1591C66.8333 27.1439 66.1477 28.0265 65.2841 28.8068C64.428 29.5795 63.4053 30.1932 62.2159 30.6477C61.0341 31.0947 59.697 31.3182 58.2045 31.3182C56.1288 31.3182 54.2727 30.8485 52.6364 29.9091C51.0076 28.9697 49.7197 27.6098 48.7727 25.8295C47.8333 24.0492 47.3636 21.8939 47.3636 19.3636C47.3636 16.8258 47.8409 14.6667 48.7955 12.8864C49.75 11.1061 51.0455 9.75 52.6818 8.81818C54.3182 7.87879 56.1591 7.40909 58.2045 7.40909C59.553 7.40909 60.803 7.59848 61.9545 7.97727C63.1136 8.35606 64.1402 8.90909 65.0341 9.63636C65.928 10.3561 66.6553 11.2386 67.2159 12.2841C67.7841 13.3295 68.1477 14.5265 68.3068 15.875ZM71.8352 31V7.72727H76.7557V17.9886H77.0625L85.4375 7.72727H91.3352L82.6989 18.1477L91.4375 31H85.5511L79.1761 21.4318L76.7557 24.3864V31H71.8352ZM93.8977 31V7.72727H109.58V11.7841H98.8182V17.3295H108.773V21.3864H98.8182V26.9432H109.625V31H93.8977ZM112.605 11.7841V7.72727H131.719V11.7841H124.594V31H119.73V11.7841H112.605Z" fill="white"/>
<path d="M135.023 7.72727H141.091L147.5 23.3636H147.773L154.182 7.72727H160.25V31H155.477V15.8523H155.284L149.261 30.8864H146.011L139.989 15.7955H139.795V31H135.023V7.72727ZM164.304 31V7.72727H179.986V11.7841H169.224V17.3295H179.179V21.3864H169.224V26.9432H180.031V31H164.304ZM192.148 31H183.898V7.72727H192.216C194.557 7.72727 196.572 8.19318 198.261 9.125C199.951 10.0492 201.25 11.3788 202.159 13.1136C203.076 14.8485 203.534 16.9242 203.534 19.3409C203.534 21.7652 203.076 23.8485 202.159 25.5909C201.25 27.3333 199.943 28.6705 198.239 29.6023C196.542 30.5341 194.511 31 192.148 31ZM188.818 26.7841H191.943C193.398 26.7841 194.621 26.5265 195.614 26.0114C196.614 25.4886 197.364 24.6818 197.864 23.5909C198.371 22.4924 198.625 21.0758 198.625 19.3409C198.625 17.6212 198.371 16.2159 197.864 15.125C197.364 14.0341 196.617 13.2311 195.625 12.7159C194.633 12.2008 193.409 11.9432 191.955 11.9432H188.818V26.7841Z" fill="#DA3D97"/>
</svg>
